# xmcd CD database file
#
# Track frame offsets:
#	150
#	7016
#	34079
#	51766
#	74321
#	99632
#	103799
#	125800
#	146864
#	182363
#	205898
#	229506
#	251499
#	268632
#
# Disc length: 3901 seconds
#
# Revision: 1
# Processed by: cddbd v1.5.2PL0 Copyright (c) Steve Scherf et al.
# Submitted via: CDex 1.83
#
DISCID=c90f3b0e
DTITLE=Anthrax - For All Kings
DYEAR=1900
DGENRE=Jazz
TTITLE0=Anthrax - Impaled
TTITLE1=Anthrax - You Gotta Believe
TTITLE2=Anthrax - Monster At The End
TTITLE3=Anthrax - For All Kings
TTITLE4=Anthrax - Breathing Lightning
TTITLE5=Anthrax - Breathing Out
TTITLE6=Anthrax - Suzerain
TTITLE7=Anthrax - Evil Twin
TTITLE8=Anthrax - Blood Eagle Wings
TTITLE9=Anthrax - Defend - Avenge
TTITLE10=Anthrax - All Of Them Thieves
TTITLE11=Anthrax - This Battle Chose Us
TTITLE12=Anthrax - Zero Tolerance
TTITLE13=Anthrax - Vice Of The People PLX
EXTD=
EXTT0=
EXTT1=
EXTT2=
EXTT3=
EXTT4=
EXTT5=
EXTT6=
EXTT7=
EXTT8=
EXTT9=
EXTT10=
EXTT11=
EXTT12=
EXTT13=
PLAYORDER=
